<svg display="none" xmlns="http://www.w3.org/2000/svg">
    <symbol id="facebook-svg" viewBox="0 0 20 20">
        <g clip-path="url(#clip1374_223)"><path d="M13.3311 3.3208L15.1572 3.3208L15.1572 0.140869C14.8418 0.0975342 13.7588 0 12.4971 0C9.86426 0 8.06152 1.65588 8.06152 4.69922L8.06152 7.5L5.15625 7.5L5.15625 11.0551L8.06152 11.0551L8.06152 20L11.623 20L11.623 11.0558L14.4102 11.0558L14.8525 7.50085L11.6221 7.50085L11.6221 5.05164C11.623 4.02417 11.8994 3.3208 13.3311 3.3208Z" fill-rule="nonzero"/></g>
    </symbol>

    <symbol id="instagram-svg" viewBox="0 0 20 20">
        <g clip-path="url(#clip1374_261)"><path d="M19.9805 5.88C19.9336 4.81738 19.7617 4.08679 19.5156 3.45374C19.2617 2.78174 18.8711 2.18018 18.3594 1.68005C17.8594 1.17212 17.2529 0.777466 16.5889 0.527466C15.9521 0.28125 15.2256 0.109375 14.1631 0.0626221C13.0928 0.0117188 12.7529 0 10.0371 0C7.32129 0 6.98145 0.0117188 5.91504 0.0585938C4.85254 0.105469 4.12207 0.277466 3.48926 0.523438C2.81738 0.777466 2.21484 1.16809 1.71484 1.68005C1.20703 2.18018 0.8125 2.78577 0.5625 3.44995C0.316406 4.08679 0.144531 4.81335 0.0976562 5.8761C0.046875 6.94666 0.0351562 7.28662 0.0351562 10.002C0.0351562 12.7173 0.046875 13.0573 0.09375 14.1239C0.140625 15.1865 0.3125 15.9171 0.558594 16.5502C0.8125 17.2222 1.20703 17.8237 1.71484 18.3239C2.21484 18.8318 2.82129 19.2264 3.48535 19.4764C4.12207 19.7227 4.84863 19.8945 5.91113 19.9413C6.97754 19.9883 7.31836 20 10.0332 20C12.749 20 13.0889 19.9883 14.1553 19.9413C15.2178 19.8945 15.9482 19.7227 16.5811 19.4764C17.9258 18.9568 18.9883 17.8942 19.5078 16.5502C19.7539 15.9133 19.9258 15.1865 19.9727 14.1239C20.0195 13.0573 20.0312 12.7173 20.0312 10.002C20.0312 7.28662 20.0273 6.94666 19.9805 5.88ZM18.1797 14.0457C18.1367 15.0225 17.9727 15.5499 17.8359 15.9015C17.499 16.7728 16.8076 17.4644 15.9365 17.8004C15.585 17.9371 15.0537 18.1012 14.0811 18.1442C13.0264 18.1912 12.71 18.2028 10.041 18.2028C7.37207 18.2028 7.05176 18.1912 6.00098 18.1442C5.02441 18.1012 4.49707 17.9371 4.14551 17.8004C3.71191 17.6401 3.31738 17.3862 2.99707 17.0541C2.66504 16.7299 2.41113 16.3391 2.25 15.9055C2.11328 15.5538 1.94922 15.0225 1.90625 14.0497C1.85938 12.9948 1.84766 12.6782 1.84766 10.0098C1.84766 7.34119 1.85938 7.02087 1.90625 5.96997C1.94922 4.99316 2.11328 4.4657 2.25 4.11414C2.41113 3.68042 2.66504 3.28589 3.00098 2.96533C3.3252 2.6333 3.71582 2.37927 4.14941 2.21924C4.50098 2.08252 5.03223 1.91846 6.00488 1.87537C7.05957 1.82849 7.37695 1.81677 10.0449 1.81677C12.7178 1.81677 13.0342 1.82849 14.085 1.87537C15.0615 1.91846 15.5889 2.08252 15.9404 2.21924C16.374 2.37927 16.7686 2.6333 17.0889 2.96533C17.4209 3.28967 17.6758 3.68042 17.8359 4.11414C17.9727 4.4657 18.1367 4.99695 18.1797 5.96997C18.2266 7.02478 18.2383 7.34119 18.2383 10.0098C18.2383 12.6782 18.2266 12.9908 18.1797 14.0457Z" fill-rule="nonzero"/><path d="M10.0371 4.86426C7.20117 4.86426 4.89941 7.16541 4.89941 10.002C4.89941 12.8385 7.20117 15.1396 10.0371 15.1396C12.874 15.1396 15.1748 12.8385 15.1748 10.002C15.1748 7.16541 12.874 4.86426 10.0371 4.86426ZM10.0371 13.3347C8.19727 13.3347 6.7041 11.8423 6.7041 10.002C6.7041 8.16174 8.19727 6.66931 10.0371 6.66931C11.877 6.66931 13.3701 8.16174 13.3701 10.002C13.3701 11.8423 11.877 13.3347 10.0371 13.3347Z" fill-rule="nonzero"/><path d="M16.5781 4.66113C16.5781 5.32349 16.041 5.86047 15.3779 5.86047C14.7158 5.86047 14.1787 5.32349 14.1787 4.66113C14.1787 3.99854 14.7158 3.46167 15.3779 3.46167C16.041 3.46167 16.5781 3.99854 16.5781 4.66113Z" fill-rule="nonzero"/></g>
    </symbol>
    <symbol id="twitter-svg" viewBox="0 0 20 16.25">
        <path d="M20 1.92371C19.2559 2.25 18.4639 2.46631 17.6377 2.57129C18.4873 2.06372 19.1367 1.26624 19.4414 0.305054C18.6484 0.777466 17.7734 1.11121 16.8408 1.29749C16.0889 0.496216 15.0166 0 13.8467 0C11.5762 0 9.74902 1.84253 9.74902 4.1012C9.74902 4.42627 9.77637 4.73877 9.84375 5.03625C6.43457 4.87 3.41895 3.23621 1.39258 0.747559C1.03906 1.36121 0.831055 2.06372 0.831055 2.81995C0.831055 4.23999 1.5625 5.49878 2.65234 6.22754C1.99414 6.21497 1.34766 6.0238 0.799805 5.72253C0.799805 5.73499 0.799805 5.75122 0.799805 5.76746C0.799805 7.76001 2.22168 9.41504 4.08496 9.79626C3.75098 9.88745 3.3877 9.93127 3.00977 9.93127C2.74707 9.93127 2.48242 9.91626 2.2334 9.86121C2.76465 11.485 4.27246 12.6787 6.06543 12.7175C4.66992 13.8087 2.89844 14.4663 0.981445 14.4663C0.644531 14.4663 0.322266 14.4513 0 14.41C1.81641 15.5813 3.96875 16.25 6.29004 16.25C13.835 16.25 17.96 10 17.96 4.58252C17.96 4.40125 17.9541 4.2262 17.9453 4.05249C18.7588 3.47498 19.4424 2.75378 20 1.92371Z" fill-rule="nonzero"/>
    </symbol>
    <symbol id="linkedin-svg" viewBox="0 0 20 20">
        <g clip-path="url(#clip1374_217)"><path d="M19.9951 20.0001L19.9951 19.9993L20 19.9993L20 12.6643C20 9.07593 19.2275 6.31177 15.0322 6.31177C13.0156 6.31177 11.6621 7.41846 11.1104 8.46765L11.0518 8.46765L11.0518 6.64673L7.07422 6.64673L7.07422 19.9993L11.2158 19.9993L11.2158 13.3876C11.2158 11.6467 11.5459 9.96338 13.7021 9.96338C15.8262 9.96338 15.8574 11.9501 15.8574 13.4993L15.8574 20.0001L19.9951 20.0001Z" fill-rule="nonzero"/><path d="M0.330078 6.64746L4.47656 6.64746L4.47656 20L0.330078 20L0.330078 6.64746Z" fill-rule="nonzero"/><path d="M2.40137 0C1.07617 0 0 1.07581 0 2.40161C0 3.72754 1.07617 4.82581 2.40137 4.82581C3.72754 4.82581 4.80371 3.72754 4.80371 2.40161C4.80273 1.07581 3.72656 0 2.40137 0L2.40137 0Z" fill-rule="nonzero"/></g>
    </symbol>
    <symbol id="logo-svg" viewBox="0 0 68.9297 55.46">
        <g clip-path="url(#clip1374_36)"><path d="M39.1494 16.87L37.8398 15.87C37.6348 15.7042 37.373 15.626 37.1104 15.6522C36.8486 15.6783 36.6074 15.807 36.4395 16.01L18.3096 36.8301L18.5898 37.14L23.0791 33C22.9297 32.9398 22.8057 32.8291 22.7295 32.687C22.6533 32.545 22.6289 32.3807 22.6611 32.2227C22.6934 32.0646 22.7793 31.9227 22.9053 31.8218C23.0312 31.7208 23.1885 31.6671 23.3496 31.67C23.4951 31.67 23.6367 31.7167 23.7539 31.803C23.8701 31.8894 23.957 32.011 24 32.15L29.9199 26.66C30.0098 26.587 30.123 26.5471 30.2393 26.5471C30.3564 26.5471 30.4688 26.587 30.5596 26.66L30.8594 26.88C30.9609 26.9528 31.0859 26.9849 31.21 26.9701C31.334 26.9553 31.4482 26.8947 31.5293 26.8L39.2695 18.12C39.3516 18.0338 39.415 17.931 39.4531 17.8184C39.4922 17.7058 39.5068 17.5862 39.4951 17.4677C39.4844 17.349 39.4473 17.2343 39.3877 17.1311C39.3281 17.0281 39.2471 16.939 39.1494 16.87Z" fill-rule="nonzero"/><path d="M47.6699 22.73C43.7031 25.553 39.2578 27.6364 34.5498 28.88C29.8779 30.0684 25.0967 30.7786 20.2803 31C20.377 31.7102 20.5518 32.4077 20.7998 33.08C23.5205 35.54 44 31.34 48 26.48C48.8506 25.47 47.6699 22.73 47.6699 22.73ZM23.3506 33C23.2158 33 23.084 32.9601 22.9727 32.8854C22.8604 32.8107 22.7734 32.7045 22.7217 32.5802C22.6709 32.4559 22.6572 32.3192 22.6836 32.1874C22.71 32.0554 22.7744 31.9342 22.8691 31.8391C22.9648 31.744 23.0859 31.6793 23.2178 31.6531C23.3496 31.6268 23.4863 31.6403 23.6104 31.6918C23.7344 31.7432 23.8408 31.8303 23.916 31.9421C23.9902 32.0541 24.0303 32.1855 24.0303 32.3199C24.0312 32.4097 24.0146 32.4987 23.9814 32.5818C23.9473 32.6649 23.8975 32.7404 23.834 32.8038C23.7705 32.8672 23.6953 32.9172 23.6123 32.9509C23.5293 32.9846 23.4404 33.0013 23.3506 33Z" fill-rule="nonzero"/><path d="M4 21.2899L4.16016 20.6L6.76074 21.1899C6.97461 21.5862 7.10742 22.0215 7.15039 22.47C7.2002 22.9449 7.16992 23.4249 7.06055 23.8899C6.93066 24.5352 6.63477 25.1353 6.2002 25.6299C5.78711 26.097 5.25488 26.4427 4.66016 26.6299C4.04785 26.819 3.39551 26.843 2.77051 26.7C2.14355 26.5646 1.56641 26.2603 1.10059 25.8199C0.641602 25.397 0.3125 24.8525 0.150391 24.25C-0.0292969 23.5953 -0.0292969 22.9045 0.150391 22.25C0.257812 21.76 0.451172 21.2928 0.720703 20.87C0.975586 20.4852 1.31836 20.1665 1.7207 19.9399L2.08008 20.49C1.73535 20.7015 1.43945 20.9839 1.21191 21.3184C0.984375 21.6527 0.831055 22.0316 0.760742 22.4299C0.636719 22.9473 0.646484 23.4877 0.790039 24C0.924805 24.4863 1.19141 24.9259 1.56055 25.2699C1.93945 25.6366 2.41406 25.8895 2.93066 26C3.43066 26.1404 3.95996 26.1404 4.45996 26C4.93945 25.8417 5.37012 25.5627 5.70996 25.1899C6.05957 24.7872 6.30078 24.3019 6.41016 23.7799C6.5752 23.1467 6.5332 22.4775 6.29004 21.87L4 21.2899Z" fill-rule="nonzero"/><path d="M9.66016 15L7.33008 18.1101L8.33008 19.9L7.87012 20.52L4.16992 13.77L4.59961 13.1801L12.1299 14.8L11.6602 15.42L9.66016 15ZM9 14.8401L5 13.9401L7 17.53L9 14.8401Z" fill-rule="nonzero"/><path d="M9 8.54993L9.59961 8.09998L13.4102 13.2L16.5498 10.85L16.9297 11.36L13.2002 14.15L9 8.54993Z" fill-rule="nonzero"/><path d="M15.2998 4.38L15.9697 4.07996L18.6094 9.85999L22.1797 8.23999L22.4395 8.81995L18.2002 10.75L15.2998 4.38Z" fill-rule="nonzero"/><path d="M28.4795 6.68005L28.6299 7.31006L23.8096 8.44006L22.21 1.62L26.8896 0.530029L27.0303 1.15002L23.0303 2.08008L23.5996 4.5L27.1201 3.67004L27.2695 4.29004L23.7402 5.10999L24.3398 7.64001L28.4795 6.68005Z" fill-rule="nonzero"/><path d="M35.3496 6.92993L33.6797 4.72998C33.4932 4.74023 33.3066 4.74023 33.1201 4.72998L31.2402 4.78992L31.3096 7.01001L30.5703 7.01001L30.3398 0.0100098L33 0C33.752 -0.069458 34.5039 0.13269 35.1201 0.569946C35.3789 0.778931 35.5879 1.04419 35.7305 1.34558C35.8721 1.64697 35.9443 1.97681 35.9395 2.30994C35.9688 2.8042 35.8398 3.29468 35.5703 3.70996C35.2822 4.10852 34.876 4.40601 34.4102 4.55994L36.1602 6.90002L35.3496 6.92993ZM34.6494 3.64001C34.8291 3.47534 34.9688 3.27148 35.0576 3.04443C35.1455 2.81726 35.1807 2.57275 35.1602 2.32996C35.165 2.08582 35.1143 1.84375 35.0127 1.62195C34.9102 1.40027 34.7588 1.20459 34.5703 1.04993C34.1094 0.737427 33.5547 0.592651 33 0.640015L31.0996 0.709961L31.2197 4.20996L33.0801 4.15002C33.6475 4.1709 34.2031 3.99023 34.6494 3.64001Z" fill-rule="nonzero"/><path d="M40.6396 5.06995L40.2793 7.45996L39.5498 7.34998L39.9199 5L37.8496 0L38.6299 0.119995L40.3994 4.38L43.3994 0.849976L44.0996 1L40.6396 5.06995Z" fill-rule="nonzero"/><path d="M50.5303 4.65002L51.3994 5.78003L51.0195 6.08008L50.1494 4.92004L49.5996 6.2301L49.1797 6.05005L49.7402 4.74011L48.2998 4.93005L48.2998 4.45007L49.7197 4.29004L48.8398 3.16003L49.2295 2.86011L50 4L50.54 2.68005L50.9697 2.86011L50.46 4.20007L51.8994 4L51.8994 4.49011L50.5303 4.65002Z" fill-rule="nonzero"/><path d="M53.8701 12.7101C53.6348 12.3459 53.4873 11.9315 53.4404 11.5L54.0303 11.24C54.0742 11.6365 54.2041 12.0186 54.4102 12.36C54.6338 12.7429 54.9248 13.0819 55.2705 13.36C55.627 13.7013 56.082 13.9218 56.5703 13.99C56.7471 14.0063 56.9248 13.9795 57.0889 13.9115C57.2529 13.8435 57.3975 13.7366 57.5107 13.6001C57.5938 13.5085 57.6562 13.401 57.6963 13.2839C57.7354 13.167 57.751 13.0431 57.7402 12.92C57.707 12.6763 57.626 12.4417 57.5 12.23C57.3125 11.9231 57.1094 11.6261 56.8906 11.3401C56.624 10.9912 56.3838 10.6237 56.1709 10.24C56.0078 9.953 55.918 9.63 55.9102 9.30005C55.9102 8.92944 56.0488 8.57227 56.3008 8.30005C56.5186 8.03613 56.8057 7.83875 57.1309 7.72998C57.4932 7.62537 57.8779 7.62537 58.2402 7.72998C58.708 7.88281 59.1396 8.12769 59.5107 8.45007C59.8184 8.70605 60.0908 9.00208 60.3203 9.33008C60.5332 9.63416 60.6914 9.97241 60.79 10.3301L60.2207 10.63C60.1211 10.2966 59.9727 9.97986 59.7803 9.69006C59.5889 9.43115 59.3633 9.1991 59.1104 9C58.7598 8.66028 58.3057 8.44592 57.8203 8.39001C57.6416 8.37512 57.4629 8.40479 57.2988 8.47632C57.1348 8.54797 56.9912 8.65918 56.8809 8.80005C56.7949 8.89014 56.7305 8.99756 56.6914 9.11487C56.6514 9.2323 56.6377 9.35681 56.6504 9.47998C56.6738 9.73218 56.7559 9.97534 56.8906 10.1901C57.0303 10.42 57.2305 10.7201 57.5 11.0801C57.7686 11.4208 58.0088 11.7819 58.2207 12.16C58.3867 12.4462 58.4795 12.7692 58.4902 13.1001C58.4912 13.4706 58.3516 13.8278 58.1006 14.1001C57.8818 14.3676 57.5898 14.5656 57.2607 14.67C56.8984 14.7793 56.5127 14.7793 56.1504 14.67C55.6797 14.5177 55.2451 14.2729 54.8701 13.9501C54.4668 13.5988 54.1279 13.179 53.8701 12.7101Z" fill-rule="nonzero"/><path d="M63.9297 14.17L62.5195 12.17L63.04 11.8L66.29 16.4401L65.7695 16.8101L64.3594 14.8101L59.1396 18.4601L58.7197 17.8501L63.9297 14.17Z" fill-rule="nonzero"/><path d="M61.6904 22.39C61.8691 21.7856 62.2158 21.2445 62.6904 20.83C63.1543 20.4142 63.7197 20.1278 64.3301 20C64.9521 19.8572 65.6006 19.8813 66.21 20.0699C66.7988 20.2645 67.3262 20.6091 67.7402 21.0699C68.1709 21.5656 68.4639 22.1655 68.5898 22.8099C68.7559 23.4426 68.7559 24.1073 68.5898 24.74C68.4072 25.342 68.0605 25.882 67.5898 26.2999C67.1133 26.7271 66.5332 27.0233 65.9082 27.16C65.2822 27.2966 64.6318 27.2692 64.0205 27.08C63.4277 26.8949 62.8975 26.5487 62.4902 26.08C62.0615 25.5869 61.7686 24.9907 61.6406 24.35C61.4873 23.7032 61.5049 23.0281 61.6904 22.39ZM63 25.5699C63.334 25.9502 63.7666 26.2306 64.25 26.38C64.749 26.5245 65.2754 26.5416 65.7822 26.4298C66.2881 26.318 66.7588 26.0808 67.1504 25.74C67.5195 25.4004 67.792 24.9691 67.9404 24.49C68.0801 23.984 68.0938 23.4518 67.9805 22.9393C67.8672 22.4269 67.6299 21.95 67.29 21.5499C66.9414 21.168 66.4961 20.8879 66 20.74C65.4961 20.606 64.9648 20.606 64.46 20.74C63.9512 20.8376 63.4795 21.0768 63.1006 21.4299C62.7275 21.7708 62.4551 22.2062 62.3105 22.6899C62.1748 23.1978 62.1748 23.7322 62.3105 24.24C62.4199 24.7361 62.6572 25.1947 63 25.5699Z" fill-rule="nonzero"/><path d="M60.9307 34L63.5205 33C63.5205 32.8199 63.5801 32.64 63.6299 32.45L64.1201 30.64L62 30.09L62.1904 29.38L68.9502 31.1901L68.2705 33.72C68.1172 34.4583 67.7061 35.1177 67.1104 35.58C66.8369 35.77 66.5225 35.8942 66.1934 35.9427C65.8633 35.9913 65.5273 35.963 65.21 35.86C64.7275 35.7554 64.2949 35.4893 63.9844 35.1056C63.6738 34.7219 63.5029 34.2438 63.5 33.75L60.7402 34.75L60.9307 34ZM64.2803 34.28C64.3975 34.4926 64.5566 34.6792 64.7471 34.8287C64.9385 34.9783 65.1582 35.0876 65.3926 35.1501C65.627 35.2128 65.8711 35.2273 66.1113 35.1929C66.3516 35.1584 66.583 35.0759 66.79 34.95C67.2314 34.5955 67.5332 34.0958 67.6406 33.54L68.1201 31.74L64.7305 30.83L64.25 32.63C64.0654 33.1664 64.0762 33.7507 64.2803 34.28Z" fill-rule="nonzero"/><path d="M57.3398 40.4399L56.8301 40.0499L59.8301 36.1L65.4102 40.33L62.5098 44.16L62 43.77L64.4502 40.54L62.4502 39.03L60.2598 41.9199L59.7598 41.54L62 38.65L59.9297 37.08L57.3398 40.4399Z" fill-rule="nonzero"/><path d="M55 48.41L53.5703 48.49L53.5703 48.01L55 48L54.2305 46.8101L54.6201 46.5601L55.3799 47.76L56 46.42L56.4307 46.65L55.75 47.91L57.1807 47.8301L57.1807 48.3201L55.7305 48.3201L56.5 49.51L56.1104 49.76L55.3506 48.5601L54.6904 49.8601L54.2705 49.62L55 48.41Z" fill-rule="nonzero"/><path d="M42 47.61L43.21 48.28C43.4131 47.8904 43.6963 47.5481 44.041 47.2758C44.3857 47.0034 44.7842 46.8073 45.21 46.7001C45.6074 46.576 46.0254 46.5319 46.4404 46.5701C46.7998 46.5977 47.1455 46.722 47.4404 46.9301C47.707 47.1309 47.9023 47.4109 48 47.73C48.1211 48.1248 48.0996 48.5493 47.9404 48.9301C47.6895 49.4474 47.3506 49.9176 46.9404 50.3201C47.2695 50.4972 47.5762 50.7156 47.8506 50.9701C48.0391 51.1649 48.1797 51.4012 48.2598 51.66C48.3115 51.8618 48.3145 52.0728 48.2695 52.276C48.2246 52.4792 48.1318 52.6689 48 52.8301C47.7334 53.2147 47.335 53.4885 46.8799 53.6C46.4805 53.7523 46.0391 53.7523 45.6406 53.6C45.4629 53.5237 45.3057 53.4071 45.1807 53.2596C45.0557 53.1122 44.9668 52.9377 44.9199 52.75C44.8154 52.4199 44.8408 52.0623 44.9902 51.75C45.2197 51.2954 45.5205 50.8802 45.8799 50.52L43.4707 49.1801C43.3779 49.651 43.3584 50.1331 43.4102 50.61L42.7998 50.61C42.7588 50.0227 42.8271 49.4327 43 48.87L41.7402 48.17L42 47.61ZM43.7402 48.61L46.3906 50.0801C46.7373 49.7484 47.0254 49.3594 47.2402 48.9301C47.3496 48.6401 47.3496 48.3199 47.2402 48.03C47.1953 47.8568 47.1074 47.6975 46.9854 47.5667C46.8623 47.4357 46.71 47.3372 46.54 47.28C46.125 47.1398 45.6758 47.1398 45.2598 47.28C44.9209 47.3695 44.6055 47.5323 44.3359 47.757C44.0664 47.9816 43.8496 48.2625 43.7002 48.5801L43.7402 48.61ZM47.5 52.61C47.5654 52.4995 47.6064 52.3763 47.6201 52.2487C47.6338 52.1211 47.6201 51.9919 47.5801 51.87C47.5186 51.6726 47.4092 51.4938 47.2598 51.35C47.0059 51.1354 46.7275 50.9508 46.4307 50.8C46.127 51.0999 45.8613 51.4357 45.6406 51.8C45.5195 52.0272 45.4902 52.2922 45.5605 52.54C45.5918 52.6544 45.6475 52.7609 45.7236 52.8522C45.7988 52.9436 45.8936 53.0178 46 53.0701C46.2549 53.166 46.5352 53.166 46.79 53.0701C47.0625 52.9976 47.2998 52.8309 47.46 52.6L47.5 52.61Z" fill-rule="nonzero"/><path d="M29.8096 55.3199L29.9492 48.3199L30.6592 48.3199L30.5498 53.9199L33.3896 49.2599L33.7393 49.2599L36.3994 54L36.5 48.4299L37.21 48.4299L37.0791 55.4299L36.4697 55.4299L33.5293 50.2L30.4199 55.33L29.8096 55.3199Z" fill-rule="nonzero"/><path d="M26.3301 48C26.7871 48.4358 27.1143 48.9901 27.2754 49.6011C27.4355 50.212 27.4238 50.8556 27.2402 51.46C27.0752 52.0789 26.7471 52.642 26.29 53.09C25.8457 53.527 25.2881 53.8317 24.6797 53.97C24.0391 54.1146 23.3711 54.094 22.7402 53.9099C22.1113 53.7563 21.5322 53.4429 21.0596 53C20.6094 52.5697 20.2871 52.0227 20.1299 51.4199C19.9766 50.797 19.9873 50.1445 20.1631 49.5272C20.3379 48.91 20.6719 48.3491 21.1299 47.9C21.5664 47.4641 22.1123 47.1533 22.71 47C23.3477 46.8557 24.0117 46.8763 24.6396 47.0599C25.2754 47.2211 25.8584 47.545 26.3301 48ZM22.9199 47.65C22.4307 47.7639 21.9834 48.0134 21.6299 48.37C21.2617 48.7368 20.999 49.1963 20.8701 49.7C20.7305 50.2004 20.7305 50.7295 20.8701 51.23C20.9883 51.7169 21.2412 52.1605 21.5996 52.51C21.9766 52.8782 22.4414 53.1433 22.9502 53.28C23.459 53.4095 23.9912 53.4095 24.5 53.28C24.9893 53.1597 25.4385 52.9111 25.7998 52.5599C26.166 52.1915 26.4287 51.7327 26.5596 51.23C26.7002 50.7262 26.7002 50.1938 26.5596 49.6899C26.4316 49.205 26.1768 48.7629 25.8203 48.4099C25.4414 48.0413 24.9727 47.7792 24.46 47.65C23.9561 47.5107 23.4238 47.5107 22.9199 47.65Z" fill-rule="nonzero"/><path d="M15.3496 43L15.6191 45.75C15.791 45.8232 15.958 45.9067 16.1191 46L17.75 46.9401L18.8496 45L19.5 45.37L16 51.4L13.7197 50.0901C13.0459 49.7515 12.5137 49.1843 12.2197 48.49C12.1104 48.1772 12.0742 47.8439 12.1123 47.5149C12.1504 47.1859 12.2627 46.8698 12.4395 46.5901C12.6719 46.1517 13.04 45.8008 13.4893 45.5901C13.9453 45.4011 14.4502 45.3625 14.9297 45.48L14.6396 42.54L15.3496 43ZM14.21 46.16C13.9746 46.219 13.7539 46.3247 13.5615 46.4708C13.3682 46.6169 13.2061 46.8005 13.0859 47.0106C12.9658 47.2207 12.8887 47.4529 12.8604 47.6934C12.8311 47.9338 12.8516 48.1776 12.9199 48.41C13.1543 48.9276 13.5605 49.348 14.0693 49.6001L15.6797 50.53L17.4297 47.53L15.8193 46.6001C15.3564 46.2533 14.7871 46.0798 14.21 46.11L14.21 46.16Z" fill-rule="nonzero"/><path d="M9.42969 38.3099L9.87988 37.86L13.3301 41.41L8.33008 46.29L5 42.85L5.45996 42.4L8.29004 45.3099L10 43.58L7.51953 41L8 40.54L10.5303 43.14L12.3896 41.33L9.42969 38.3099Z" fill-rule="nonzero"/><path d="M2 34.38L2.24023 33L2.70996 33.0699L2.44043 34.49L3.77051 34L3.93066 34.4399L2.58008 34.9L3.69043 35.84L3.37012 36.2L2.30078 35.2L2.05078 36.62L1.57031 36.53L1.85059 35.11L0.510742 35.59L0.360352 35.2L1.7002 34.73L0.59082 33.8L0.919922 33.4399L2 34.38Z" fill-rule="nonzero"/></g>
    </symbol>

    <symbol id="info-icon1-svg" width="24.000000" height="24.000000" viewBox="0 0 24 24">
        <g>
            <path id="Shape" d="M12 21C12 21 4 16.0908 4 10.3635C4 6.29688 7.58203 3 12 3C16.418 3 20 6.29688 20 10.3635C20 16.0908 12 21 12 21Z" stroke="#9DA4BD" stroke-opacity="1.000000" stroke-width="1.000000" stroke-linejoin="round"/>
	        <path id="Oval" d="M15 11C15 9.34326 13.6572 8 12 8C10.3428 8 9 9.34326 9 11C9 12.6567 10.3428 14 12 14C13.6572 14 15 12.6567 15 11Z" stroke="#9DA4BD" stroke-opacity="1.000000" stroke-width="1.000000" stroke-linejoin="round"/>
        </g>
    </symbol>
    <symbol id="info-icon2-svg" width="24.000000" height="24.000000" viewBox="0 0 24 24">
        <path id="Shape" d="M19.999 18.4163C20.001 18.8694 19.8125 19.302 19.4785 19.6084C19.1445 19.9146 18.6973 20.0659 18.2461 20.0251C15.7705 19.7563 13.3926 18.9104 11.3027 17.5554C9.35938 16.3203 7.71094 14.6724 6.47656 12.7285C5.11621 10.6299 4.27051 8.24048 4.00684 5.75391C3.96582 5.30396 4.11621 4.85791 4.4209 4.52417C4.72559 4.19067 5.15625 4.00049 5.60742 4L8.02051 4C8.82812 3.99219 9.5166 4.58398 9.62988 5.38379C9.73145 6.15601 9.9209 6.91455 10.1934 7.64429C10.4141 8.23242 10.2725 8.89526 9.83105 9.3418L8.80957 10.3635C9.9541 12.3774 11.6221 14.0452 13.6357 15.1904L14.6582 14.1687C15.1045 13.7271 15.7676 13.5857 16.3555 13.8066C17.085 14.0791 17.8438 14.2678 18.6162 14.3699C19.4248 14.4839 20.0195 15.186 19.999 16.0029L19.999 18.4163Z" stroke="#9DA4BD" stroke-opacity="1.000000" stroke-width="1.000000" stroke-linejoin="round"/>
    </symbol>

    <symbol id="info-icon3-svg" width="24.000000" height="24.000000" viewBox="0 0 24 24">
        <g>
            <path d="M19.2002 5C20.1904 5 21 5.7876 21 6.75L21 17.25C21 18.2124 20.1904 19 19.2002 19L4.7998 19C3.80957 19 3 18.2124 3 17.25L3 6.75C3 5.7876 3.80957 5 4.7998 5L19.2002 5Z" stroke="#9DA4BD" stroke-opacity="1.000000" stroke-width="1.000000" stroke-linejoin="round"/>
	        <path d="M20 7L12 13L4 7" stroke="#9DA4BD" stroke-opacity="1.000000" stroke-width="1.000000" stroke-linejoin="round" stroke-linecap="round"/>
        </g>
    </symbol>

    <symbol id="moon-svg" width="16.000000" height="16.000000" viewBox="0 0 16 16">
        <path d="M6.00025 0.277334C6.09787 0.395951 6.15767 0.541116 6.17193 0.694073C6.18619 0.84703 6.15426 1.00075 6.08025 1.13537C5.50209 2.19689 5.20015 3.38676 5.20222 4.59551C5.20222 8.61668 8.48035 11.8728 12.5205 11.8728C13.0475 11.8728 13.5606 11.8178 14.0536 11.7128C14.2047 11.6801 14.3621 11.6926 14.5062 11.7488C14.6503 11.805 14.7746 11.9024 14.8636 12.0288C14.9576 12.1603 15.0055 12.3191 14.9999 12.4806C14.9943 12.6421 14.9355 12.7972 14.8326 12.9219C14.0483 13.8853 13.0588 14.6616 11.9363 15.1941C10.8139 15.7267 9.58672 16.002 8.34435 16C3.73416 16 0 12.2858 0 7.70964C0 4.2655 2.11409 1.31138 5.12421 0.0593244C5.27416 -0.00404638 5.44062 -0.0170529 5.59858 0.0222585C5.75655 0.06157 5.8975 0.151077 6.00025 0.277334V0.277334Z" fill="black"/>
        <path d="M10.7939 3.14746C10.8083 3.10415 10.8359 3.06646 10.8729 3.03975C10.9099 3.01304 10.9543 2.99866 10.9999 2.99866C11.0456 2.99866 11.09 3.01304 11.127 3.03975C11.164 3.06646 11.1916 3.10415 11.2059 3.14746L11.593 4.30951C11.766 4.82753 12.172 5.23355 12.69 5.40655L13.8521 5.79357C13.8954 5.80791 13.933 5.83553 13.9598 5.87252C13.9865 5.9095 14.0008 5.95396 14.0008 5.99958C14.0008 6.0452 13.9865 6.08966 13.9598 6.12664C13.933 6.16362 13.8954 6.19125 13.8521 6.20559L12.69 6.5926C12.4345 6.67772 12.2024 6.82118 12.012 7.01159C11.8215 7.20201 11.6781 7.43416 11.593 7.68965L11.2059 8.8517C11.1916 8.895 11.164 8.93269 11.127 8.9594C11.09 8.98611 11.0456 9.00049 10.9999 9.00049C10.9543 9.00049 10.9099 8.98611 10.8729 8.9594C10.8359 8.93269 10.8083 8.895 10.7939 8.8517L10.4069 7.68965C10.3218 7.43416 10.1783 7.20201 9.98792 7.01159C9.7975 6.82118 9.56535 6.67772 9.30987 6.5926L8.14782 6.20559C8.10451 6.19125 8.06682 6.16362 8.04011 6.12664C8.0134 6.08966 7.99902 6.0452 7.99902 5.99958C7.99902 5.95396 8.0134 5.9095 8.04011 5.87252C8.06682 5.83553 8.10451 5.80791 8.14782 5.79357L9.30987 5.40655C9.56535 5.32143 9.7975 5.17798 9.98792 4.98756C10.1783 4.79714 10.3218 4.56499 10.4069 4.30951L10.7939 3.14746V3.14746ZM13.8631 0.0983307C13.8729 0.0698558 13.8914 0.0451644 13.916 0.0276893C13.9405 0.0102143 13.9699 0.000823975 14.0001 0.000823975C14.0302 0.000823975 14.0596 0.0102143 14.0841 0.0276893C14.1087 0.0451644 14.1272 0.0698558 14.1371 0.0983307L14.3951 0.872363C14.5101 1.21838 14.7811 1.48939 15.1271 1.60439L15.9011 1.8624C15.9296 1.87228 15.9543 1.89078 15.9718 1.91533C15.9893 1.93988 15.9986 1.96927 15.9986 1.99941C15.9986 2.02955 15.9893 2.05894 15.9718 2.08349C15.9543 2.10804 15.9296 2.12654 15.9011 2.13642L15.1271 2.39443C14.9566 2.45115 14.8016 2.54685 14.6746 2.67392C14.5475 2.80099 14.4518 2.95594 14.3951 3.12646L14.1371 3.90049C14.1272 3.92896 14.1087 3.95366 14.0841 3.97113C14.0596 3.98861 14.0302 3.998 14.0001 3.998C13.9699 3.998 13.9405 3.98861 13.916 3.97113C13.8914 3.95366 13.8729 3.92896 13.8631 3.90049L13.605 3.12646C13.5483 2.95594 13.4526 2.80099 13.3256 2.67392C13.1985 2.54685 13.0435 2.45115 12.873 2.39443L12.099 2.13642C12.0705 2.12654 12.0458 2.10804 12.0283 2.08349C12.0109 2.05894 12.0015 2.02955 12.0015 1.99941C12.0015 1.96927 12.0109 1.93988 12.0283 1.91533C12.0458 1.89078 12.0705 1.87228 12.099 1.8624L12.873 1.60439C13.219 1.48939 13.49 1.21838 13.605 0.872363L13.8631 0.0993307V0.0983307Z" fill="black"/>
    </symbol>

    <symbol id="sun-svg" width="16.000000" height="16.000000" viewBox="0 0 16 16">
        <path d="M8 11C7.20435 11 6.44129 10.6839 5.87868 10.1213C5.31607 9.55871 5 8.79565 5 8C5 7.20435 5.31607 6.44129 5.87868 5.87868C6.44129 5.31607 7.20435 5 8 5C8.79565 5 9.55871 5.31607 10.1213 5.87868C10.6839 6.44129 11 7.20435 11 8C11 8.79565 10.6839 9.55871 10.1213 10.1213C9.55871 10.6839 8.79565 11 8 11ZM8 12C9.06087 12 10.0783 11.5786 10.8284 10.8284C11.5786 10.0783 12 9.06087 12 8C12 6.93913 11.5786 5.92172 10.8284 5.17157C10.0783 4.42143 9.06087 4 8 4C6.93913 4 5.92172 4.42143 5.17157 5.17157C4.42143 5.92172 4 6.93913 4 8C4 9.06087 4.42143 10.0783 5.17157 10.8284C5.92172 11.5786 6.93913 12 8 12V12ZM8 0C8.13261 0 8.25979 0.0526784 8.35355 0.146447C8.44732 0.240215 8.5 0.367392 8.5 0.5V2.5C8.5 2.63261 8.44732 2.75979 8.35355 2.85355C8.25979 2.94732 8.13261 3 8 3C7.86739 3 7.74021 2.94732 7.64645 2.85355C7.55268 2.75979 7.5 2.63261 7.5 2.5V0.5C7.5 0.367392 7.55268 0.240215 7.64645 0.146447C7.74021 0.0526784 7.86739 0 8 0V0ZM8 13C8.13261 13 8.25979 13.0527 8.35355 13.1464C8.44732 13.2402 8.5 13.3674 8.5 13.5V15.5C8.5 15.6326 8.44732 15.7598 8.35355 15.8536C8.25979 15.9473 8.13261 16 8 16C7.86739 16 7.74021 15.9473 7.64645 15.8536C7.55268 15.7598 7.5 15.6326 7.5 15.5V13.5C7.5 13.3674 7.55268 13.2402 7.64645 13.1464C7.74021 13.0527 7.86739 13 8 13V13ZM16 8C16 8.13261 15.9473 8.25979 15.8536 8.35355C15.7598 8.44732 15.6326 8.5 15.5 8.5H13.5C13.3674 8.5 13.2402 8.44732 13.1464 8.35355C13.0527 8.25979 13 8.13261 13 8C13 7.86739 13.0527 7.74021 13.1464 7.64645C13.2402 7.55268 13.3674 7.5 13.5 7.5H15.5C15.6326 7.5 15.7598 7.55268 15.8536 7.64645C15.9473 7.74021 16 7.86739 16 8ZM3 8C3 8.13261 2.94732 8.25979 2.85355 8.35355C2.75979 8.44732 2.63261 8.5 2.5 8.5H0.5C0.367392 8.5 0.240215 8.44732 0.146447 8.35355C0.0526784 8.25979 0 8.13261 0 8C0 7.86739 0.0526784 7.74021 0.146447 7.64645C0.240215 7.55268 0.367392 7.5 0.5 7.5H2.5C2.63261 7.5 2.75979 7.55268 2.85355 7.64645C2.94732 7.74021 3 7.86739 3 8ZM13.657 2.343C13.7507 2.43676 13.8034 2.56392 13.8034 2.6965C13.8034 2.82908 13.7507 2.95624 13.657 3.05L12.243 4.465C12.1965 4.51142 12.1413 4.54823 12.0806 4.57333C12.0199 4.59843 11.9548 4.61132 11.8891 4.61128C11.7565 4.61118 11.6293 4.55839 11.5355 4.4645C11.4891 4.41801 11.4523 4.36284 11.4272 4.30212C11.4021 4.24141 11.3892 4.17634 11.3892 4.11065C11.3893 3.97796 11.4421 3.85075 11.536 3.757L12.95 2.343C13.0438 2.24926 13.1709 2.19661 13.3035 2.19661C13.4361 2.19661 13.5632 2.24926 13.657 2.343V2.343ZM4.464 11.536C4.55774 11.6298 4.61039 11.7569 4.61039 11.8895C4.61039 12.0221 4.55774 12.1492 4.464 12.243L3.05 13.657C2.9557 13.7481 2.8294 13.7985 2.6983 13.7973C2.5672 13.7962 2.44179 13.7436 2.34909 13.6509C2.25639 13.5582 2.2038 13.4328 2.20266 13.3017C2.20152 13.1706 2.25192 13.0443 2.343 12.95L3.757 11.536C3.85076 11.4423 3.97792 11.3896 4.1105 11.3896C4.24308 11.3896 4.37024 11.4423 4.464 11.536V11.536ZM13.657 13.657C13.5632 13.7507 13.4361 13.8034 13.3035 13.8034C13.1709 13.8034 13.0438 13.7507 12.95 13.657L11.536 12.243C11.4449 12.1487 11.3945 12.0224 11.3957 11.8913C11.3968 11.7602 11.4494 11.6348 11.5421 11.5421C11.6348 11.4494 11.7602 11.3968 11.8913 11.3957C12.0224 11.3945 12.1487 11.4449 12.243 11.536L13.657 12.95C13.7507 13.0438 13.8034 13.1709 13.8034 13.3035C13.8034 13.4361 13.7507 13.5632 13.657 13.657ZM4.464 4.465C4.37024 4.55874 4.24308 4.61139 4.1105 4.61139C3.97792 4.61139 3.85076 4.55874 3.757 4.465L2.343 3.05C2.29524 3.00388 2.25715 2.9487 2.23095 2.8877C2.20474 2.8267 2.19095 2.76109 2.19037 2.6947C2.1898 2.62831 2.20245 2.56247 2.22759 2.50102C2.25273 2.43957 2.28986 2.38375 2.3368 2.3368C2.38375 2.28986 2.43957 2.25273 2.50102 2.22759C2.56247 2.20245 2.62831 2.1898 2.6947 2.19037C2.76109 2.19095 2.8267 2.20474 2.8877 2.23095C2.9487 2.25715 3.00388 2.29524 3.05 2.343L4.464 3.757C4.51056 3.80345 4.54751 3.85862 4.57271 3.91937C4.59792 3.98011 4.61089 4.04523 4.61089 4.111C4.61089 4.17677 4.59792 4.24189 4.57271 4.30263C4.54751 4.36338 4.51056 4.41855 4.464 4.465V4.465Z" fill="black"/>
    </symbol>

    <symbol id="footer-svg" viewBox="0 0 12 12">
        <path d="M5.92773 4.28394C6.69629 4.32007 6.89355 4.97412 6.90625 5.28003L7.98047 5.28003C7.93164 4.09204 7.08594 3.36597 5.91016 3.36597C4.58398 3.36597 3.59961 4.19995 3.59961 6.08398C3.59961 7.24805 4.1582 8.62793 5.9043 8.62793C7.23633 8.62793 7.9502 7.63794 7.96777 6.85791L6.89355 6.85791C6.87598 7.21191 6.62402 7.68604 5.91602 7.72192C5.12988 7.698 4.7998 7.08594 4.7998 6.08398C4.7998 4.3501 5.56836 4.2959 5.92773 4.28394ZM6 0C2.68848 0 0 2.68799 0 6C0 9.31201 2.68848 12 6 12C9.31152 12 12 9.31201 12 6C12 2.68799 9.31152 0 6 0ZM6 10.8C3.35352 10.8 1.2002 8.646 1.2002 6C1.2002 3.354 3.35352 1.19995 6 1.19995C8.64648 1.19995 10.7998 3.354 10.7998 6C10.7998 8.646 8.64648 10.8 6 10.8Z" fill-rule="nonzero"/>
    </symbol>


</svg>
