<svg width="68.929688" height="55.459961" viewBox="0 0 68.9297 55.46" fill="none" xmlns="http://www.w3.org/2000/svg" xmlns:xlink="http://www.w3.org/1999/xlink">
	<desc>
			Created with Pixso.
	</desc>
	<defs>
		<clipPath id="clip1374_36">
			<rect width="68.930000" height="55.459999" fill="white" fill-opacity="0"/>
		</clipPath>
	</defs>
	<rect width="68.930000" height="55.459999" fill="#FFFFFF" fill-opacity="0"/>
	<g clip-path="url(#clip1374_36)">
		<path d="M39.1494 16.87L37.8398 15.87C37.6348 15.7042 37.373 15.626 37.1104 15.6522C36.8486 15.6783 36.6074 15.807 36.4395 16.01L18.3096 36.8301L18.5898 37.14L23.0791 33C22.9297 32.9398 22.8057 32.8291 22.7295 32.687C22.6533 32.545 22.6289 32.3807 22.6611 32.2227C22.6934 32.0646 22.7793 31.9227 22.9053 31.8218C23.0312 31.7208 23.1885 31.6671 23.3496 31.67C23.4951 31.67 23.6367 31.7167 23.7539 31.803C23.8701 31.8894 23.957 32.011 24 32.15L29.9199 26.66C30.0098 26.587 30.123 26.5471 30.2393 26.5471C30.3564 26.5471 30.4688 26.587 30.5596 26.66L30.8594 26.88C30.9609 26.9528 31.0859 26.9849 31.21 26.9701C31.334 26.9553 31.4482 26.8947 31.5293 26.8L39.2695 18.12C39.3516 18.0338 39.415 17.931 39.4531 17.8184C39.4922 17.7058 39.5068 17.5862 39.4951 17.4677C39.4844 17.349 39.4473 17.2343 39.3877 17.1311C39.3281 17.0281 39.2471 16.939 39.1494 16.87Z" fill="var(--text-black)" fill-opacity="1.000000" fill-rule="nonzero"/>
		<path d="M47.6699 22.73C43.7031 25.553 39.2578 27.6364 34.5498 28.88C29.8779 30.0684 25.0967 30.7786 20.2803 31C20.377 31.7102 20.5518 32.4077 20.7998 33.08C23.5205 35.54 44 31.34 48 26.48C48.8506 25.47 47.6699 22.73 47.6699 22.73ZM23.3506 33C23.2158 33 23.084 32.9601 22.9727 32.8854C22.8604 32.8107 22.7734 32.7045 22.7217 32.5802C22.6709 32.4559 22.6572 32.3192 22.6836 32.1874C22.71 32.0554 22.7744 31.9342 22.8691 31.8391C22.9648 31.744 23.0859 31.6793 23.2178 31.6531C23.3496 31.6268 23.4863 31.6403 23.6104 31.6918C23.7344 31.7432 23.8408 31.8303 23.916 31.9421C23.9902 32.0541 24.0303 32.1855 24.0303 32.3199C24.0312 32.4097 24.0146 32.4987 23.9814 32.5818C23.9473 32.6649 23.8975 32.7404 23.834 32.8038C23.7705 32.8672 23.6953 32.9172 23.6123 32.9509C23.5293 32.9846 23.4404 33.0013 23.3506 33Z" fill="var(--text-black)" fill-opacity="1.000000" fill-rule="nonzero"/>
		<path d="M4 21.2899L4.16016 20.6L6.76074 21.1899C6.97461 21.5862 7.10742 22.0215 7.15039 22.47C7.2002 22.9449 7.16992 23.4249 7.06055 23.8899C6.93066 24.5352 6.63477 25.1353 6.2002 25.6299C5.78711 26.097 5.25488 26.4427 4.66016 26.6299C4.04785 26.819 3.39551 26.843 2.77051 26.7C2.14355 26.5646 1.56641 26.2603 1.10059 25.8199C0.641602 25.397 0.3125 24.8525 0.150391 24.25C-0.0292969 23.5953 -0.0292969 22.9045 0.150391 22.25C0.257812 21.76 0.451172 21.2928 0.720703 20.87C0.975586 20.4852 1.31836 20.1665 1.7207 19.9399L2.08008 20.49C1.73535 20.7015 1.43945 20.9839 1.21191 21.3184C0.984375 21.6527 0.831055 22.0316 0.760742 22.4299C0.636719 22.9473 0.646484 23.4877 0.790039 24C0.924805 24.4863 1.19141 24.9259 1.56055 25.2699C1.93945 25.6366 2.41406 25.8895 2.93066 26C3.43066 26.1404 3.95996 26.1404 4.45996 26C4.93945 25.8417 5.37012 25.5627 5.70996 25.1899C6.05957 24.7872 6.30078 24.3019 6.41016 23.7799C6.5752 23.1467 6.5332 22.4775 6.29004 21.87L4 21.2899Z" fill="var(--text-black)" fill-opacity="1.000000" fill-rule="nonzero"/>
		<path d="M9.66016 15L7.33008 18.1101L8.33008 19.9L7.87012 20.52L4.16992 13.77L4.59961 13.1801L12.1299 14.8L11.6602 15.42L9.66016 15ZM9 14.8401L5 13.9401L7 17.53L9 14.8401Z" fill="var(--text-black)" fill-opacity="1.000000" fill-rule="nonzero"/>
		<path d="M9 8.54993L9.59961 8.09998L13.4102 13.2L16.5498 10.85L16.9297 11.36L13.2002 14.15L9 8.54993Z" fill="var(--text-black)" fill-opacity="1.000000" fill-rule="nonzero"/>
		<path d="M15.2998 4.38L15.9697 4.07996L18.6094 9.85999L22.1797 8.23999L22.4395 8.81995L18.2002 10.75L15.2998 4.38Z" fill="var(--text-black)" fill-opacity="1.000000" fill-rule="nonzero"/>
		<path d="M28.4795 6.68005L28.6299 7.31006L23.8096 8.44006L22.21 1.62L26.8896 0.530029L27.0303 1.15002L23.0303 2.08008L23.5996 4.5L27.1201 3.67004L27.2695 4.29004L23.7402 5.10999L24.3398 7.64001L28.4795 6.68005Z" fill="var(--text-black)" fill-opacity="1.000000" fill-rule="nonzero"/>
		<path d="M35.3496 6.92993L33.6797 4.72998C33.4932 4.74023 33.3066 4.74023 33.1201 4.72998L31.2402 4.78992L31.3096 7.01001L30.5703 7.01001L30.3398 0.0100098L33 0C33.752 -0.069458 34.5039 0.13269 35.1201 0.569946C35.3789 0.778931 35.5879 1.04419 35.7305 1.34558C35.8721 1.64697 35.9443 1.97681 35.9395 2.30994C35.9688 2.8042 35.8398 3.29468 35.5703 3.70996C35.2822 4.10852 34.876 4.40601 34.4102 4.55994L36.1602 6.90002L35.3496 6.92993ZM34.6494 3.64001C34.8291 3.47534 34.9688 3.27148 35.0576 3.04443C35.1455 2.81726 35.1807 2.57275 35.1602 2.32996C35.165 2.08582 35.1143 1.84375 35.0127 1.62195C34.9102 1.40027 34.7588 1.20459 34.5703 1.04993C34.1094 0.737427 33.5547 0.592651 33 0.640015L31.0996 0.709961L31.2197 4.20996L33.0801 4.15002C33.6475 4.1709 34.2031 3.99023 34.6494 3.64001Z" fill="var(--text-black)" fill-opacity="1.000000" fill-rule="nonzero"/>
		<path d="M40.6396 5.06995L40.2793 7.45996L39.5498 7.34998L39.9199 5L37.8496 0L38.6299 0.119995L40.3994 4.38L43.3994 0.849976L44.0996 1L40.6396 5.06995Z" fill="var(--text-black)" fill-opacity="1.000000" fill-rule="nonzero"/>
		<path d="M50.5303 4.65002L51.3994 5.78003L51.0195 6.08008L50.1494 4.92004L49.5996 6.2301L49.1797 6.05005L49.7402 4.74011L48.2998 4.93005L48.2998 4.45007L49.7197 4.29004L48.8398 3.16003L49.2295 2.86011L50 4L50.54 2.68005L50.9697 2.86011L50.46 4.20007L51.8994 4L51.8994 4.49011L50.5303 4.65002Z" fill="var(--text-black)" fill-opacity="1.000000" fill-rule="nonzero"/>
		<path d="M53.8701 12.7101C53.6348 12.3459 53.4873 11.9315 53.4404 11.5L54.0303 11.24C54.0742 11.6365 54.2041 12.0186 54.4102 12.36C54.6338 12.7429 54.9248 13.0819 55.2705 13.36C55.627 13.7013 56.082 13.9218 56.5703 13.99C56.7471 14.0063 56.9248 13.9795 57.0889 13.9115C57.2529 13.8435 57.3975 13.7366 57.5107 13.6001C57.5938 13.5085 57.6562 13.401 57.6963 13.2839C57.7354 13.167 57.751 13.0431 57.7402 12.92C57.707 12.6763 57.626 12.4417 57.5 12.23C57.3125 11.9231 57.1094 11.6261 56.8906 11.3401C56.624 10.9912 56.3838 10.6237 56.1709 10.24C56.0078 9.953 55.918 9.63 55.9102 9.30005C55.9102 8.92944 56.0488 8.57227 56.3008 8.30005C56.5186 8.03613 56.8057 7.83875 57.1309 7.72998C57.4932 7.62537 57.8779 7.62537 58.2402 7.72998C58.708 7.88281 59.1396 8.12769 59.5107 8.45007C59.8184 8.70605 60.0908 9.00208 60.3203 9.33008C60.5332 9.63416 60.6914 9.97241 60.79 10.3301L60.2207 10.63C60.1211 10.2966 59.9727 9.97986 59.7803 9.69006C59.5889 9.43115 59.3633 9.1991 59.1104 9C58.7598 8.66028 58.3057 8.44592 57.8203 8.39001C57.6416 8.37512 57.4629 8.40479 57.2988 8.47632C57.1348 8.54797 56.9912 8.65918 56.8809 8.80005C56.7949 8.89014 56.7305 8.99756 56.6914 9.11487C56.6514 9.2323 56.6377 9.35681 56.6504 9.47998C56.6738 9.73218 56.7559 9.97534 56.8906 10.1901C57.0303 10.42 57.2305 10.7201 57.5 11.0801C57.7686 11.4208 58.0088 11.7819 58.2207 12.16C58.3867 12.4462 58.4795 12.7692 58.4902 13.1001C58.4912 13.4706 58.3516 13.8278 58.1006 14.1001C57.8818 14.3676 57.5898 14.5656 57.2607 14.67C56.8984 14.7793 56.5127 14.7793 56.1504 14.67C55.6797 14.5177 55.2451 14.2729 54.8701 13.9501C54.4668 13.5988 54.1279 13.179 53.8701 12.7101Z" fill="var(--text-black)" fill-opacity="1.000000" fill-rule="nonzero"/>
		<path d="M63.9297 14.17L62.5195 12.17L63.04 11.8L66.29 16.4401L65.7695 16.8101L64.3594 14.8101L59.1396 18.4601L58.7197 17.8501L63.9297 14.17Z" fill="var(--text-black)" fill-opacity="1.000000" fill-rule="nonzero"/>
		<path d="M61.6904 22.39C61.8691 21.7856 62.2158 21.2445 62.6904 20.83C63.1543 20.4142 63.7197 20.1278 64.3301 20C64.9521 19.8572 65.6006 19.8813 66.21 20.0699C66.7988 20.2645 67.3262 20.6091 67.7402 21.0699C68.1709 21.5656 68.4639 22.1655 68.5898 22.8099C68.7559 23.4426 68.7559 24.1073 68.5898 24.74C68.4072 25.342 68.0605 25.882 67.5898 26.2999C67.1133 26.7271 66.5332 27.0233 65.9082 27.16C65.2822 27.2966 64.6318 27.2692 64.0205 27.08C63.4277 26.8949 62.8975 26.5487 62.4902 26.08C62.0615 25.5869 61.7686 24.9907 61.6406 24.35C61.4873 23.7032 61.5049 23.0281 61.6904 22.39ZM63 25.5699C63.334 25.9502 63.7666 26.2306 64.25 26.38C64.749 26.5245 65.2754 26.5416 65.7822 26.4298C66.2881 26.318 66.7588 26.0808 67.1504 25.74C67.5195 25.4004 67.792 24.9691 67.9404 24.49C68.0801 23.984 68.0938 23.4518 67.9805 22.9393C67.8672 22.4269 67.6299 21.95 67.29 21.5499C66.9414 21.168 66.4961 20.8879 66 20.74C65.4961 20.606 64.9648 20.606 64.46 20.74C63.9512 20.8376 63.4795 21.0768 63.1006 21.4299C62.7275 21.7708 62.4551 22.2062 62.3105 22.6899C62.1748 23.1978 62.1748 23.7322 62.3105 24.24C62.4199 24.7361 62.6572 25.1947 63 25.5699Z" fill="var(--text-black)" fill-opacity="1.000000" fill-rule="nonzero"/>
		<path d="M60.9307 34L63.5205 33C63.5205 32.8199 63.5801 32.64 63.6299 32.45L64.1201 30.64L62 30.09L62.1904 29.38L68.9502 31.1901L68.2705 33.72C68.1172 34.4583 67.7061 35.1177 67.1104 35.58C66.8369 35.77 66.5225 35.8942 66.1934 35.9427C65.8633 35.9913 65.5273 35.963 65.21 35.86C64.7275 35.7554 64.2949 35.4893 63.9844 35.1056C63.6738 34.7219 63.5029 34.2438 63.5 33.75L60.7402 34.75L60.9307 34ZM64.2803 34.28C64.3975 34.4926 64.5566 34.6792 64.7471 34.8287C64.9385 34.9783 65.1582 35.0876 65.3926 35.1501C65.627 35.2128 65.8711 35.2273 66.1113 35.1929C66.3516 35.1584 66.583 35.0759 66.79 34.95C67.2314 34.5955 67.5332 34.0958 67.6406 33.54L68.1201 31.74L64.7305 30.83L64.25 32.63C64.0654 33.1664 64.0762 33.7507 64.2803 34.28Z" fill="var(--text-black)" fill-opacity="1.000000" fill-rule="nonzero"/>
		<path d="M57.3398 40.4399L56.8301 40.0499L59.8301 36.1L65.4102 40.33L62.5098 44.16L62 43.77L64.4502 40.54L62.4502 39.03L60.2598 41.9199L59.7598 41.54L62 38.65L59.9297 37.08L57.3398 40.4399Z" fill="var(--text-black)" fill-opacity="1.000000" fill-rule="nonzero"/>
		<path d="M55 48.41L53.5703 48.49L53.5703 48.01L55 48L54.2305 46.8101L54.6201 46.5601L55.3799 47.76L56 46.42L56.4307 46.65L55.75 47.91L57.1807 47.8301L57.1807 48.3201L55.7305 48.3201L56.5 49.51L56.1104 49.76L55.3506 48.5601L54.6904 49.8601L54.2705 49.62L55 48.41Z" fill="var(--text-black)" fill-opacity="1.000000" fill-rule="nonzero"/>
		<path d="M42 47.61L43.21 48.28C43.4131 47.8904 43.6963 47.5481 44.041 47.2758C44.3857 47.0034 44.7842 46.8073 45.21 46.7001C45.6074 46.576 46.0254 46.5319 46.4404 46.5701C46.7998 46.5977 47.1455 46.722 47.4404 46.9301C47.707 47.1309 47.9023 47.4109 48 47.73C48.1211 48.1248 48.0996 48.5493 47.9404 48.9301C47.6895 49.4474 47.3506 49.9176 46.9404 50.3201C47.2695 50.4972 47.5762 50.7156 47.8506 50.9701C48.0391 51.1649 48.1797 51.4012 48.2598 51.66C48.3115 51.8618 48.3145 52.0728 48.2695 52.276C48.2246 52.4792 48.1318 52.6689 48 52.8301C47.7334 53.2147 47.335 53.4885 46.8799 53.6C46.4805 53.7523 46.0391 53.7523 45.6406 53.6C45.4629 53.5237 45.3057 53.4071 45.1807 53.2596C45.0557 53.1122 44.9668 52.9377 44.9199 52.75C44.8154 52.4199 44.8408 52.0623 44.9902 51.75C45.2197 51.2954 45.5205 50.8802 45.8799 50.52L43.4707 49.1801C43.3779 49.651 43.3584 50.1331 43.4102 50.61L42.7998 50.61C42.7588 50.0227 42.8271 49.4327 43 48.87L41.7402 48.17L42 47.61ZM43.7402 48.61L46.3906 50.0801C46.7373 49.7484 47.0254 49.3594 47.2402 48.9301C47.3496 48.6401 47.3496 48.3199 47.2402 48.03C47.1953 47.8568 47.1074 47.6975 46.9854 47.5667C46.8623 47.4357 46.71 47.3372 46.54 47.28C46.125 47.1398 45.6758 47.1398 45.2598 47.28C44.9209 47.3695 44.6055 47.5323 44.3359 47.757C44.0664 47.9816 43.8496 48.2625 43.7002 48.5801L43.7402 48.61ZM47.5 52.61C47.5654 52.4995 47.6064 52.3763 47.6201 52.2487C47.6338 52.1211 47.6201 51.9919 47.5801 51.87C47.5186 51.6726 47.4092 51.4938 47.2598 51.35C47.0059 51.1354 46.7275 50.9508 46.4307 50.8C46.127 51.0999 45.8613 51.4357 45.6406 51.8C45.5195 52.0272 45.4902 52.2922 45.5605 52.54C45.5918 52.6544 45.6475 52.7609 45.7236 52.8522C45.7988 52.9436 45.8936 53.0178 46 53.0701C46.2549 53.166 46.5352 53.166 46.79 53.0701C47.0625 52.9976 47.2998 52.8309 47.46 52.6L47.5 52.61Z" fill="var(--text-black)" fill-opacity="1.000000" fill-rule="nonzero"/>
		<path d="M29.8096 55.3199L29.9492 48.3199L30.6592 48.3199L30.5498 53.9199L33.3896 49.2599L33.7393 49.2599L36.3994 54L36.5 48.4299L37.21 48.4299L37.0791 55.4299L36.4697 55.4299L33.5293 50.2L30.4199 55.33L29.8096 55.3199Z" fill="var(--text-black)" fill-opacity="1.000000" fill-rule="nonzero"/>
		<path d="M26.3301 48C26.7871 48.4358 27.1143 48.9901 27.2754 49.6011C27.4355 50.212 27.4238 50.8556 27.2402 51.46C27.0752 52.0789 26.7471 52.642 26.29 53.09C25.8457 53.527 25.2881 53.8317 24.6797 53.97C24.0391 54.1146 23.3711 54.094 22.7402 53.9099C22.1113 53.7563 21.5322 53.4429 21.0596 53C20.6094 52.5697 20.2871 52.0227 20.1299 51.4199C19.9766 50.797 19.9873 50.1445 20.1631 49.5272C20.3379 48.91 20.6719 48.3491 21.1299 47.9C21.5664 47.4641 22.1123 47.1533 22.71 47C23.3477 46.8557 24.0117 46.8763 24.6396 47.0599C25.2754 47.2211 25.8584 47.545 26.3301 48ZM22.9199 47.65C22.4307 47.7639 21.9834 48.0134 21.6299 48.37C21.2617 48.7368 20.999 49.1963 20.8701 49.7C20.7305 50.2004 20.7305 50.7295 20.8701 51.23C20.9883 51.7169 21.2412 52.1605 21.5996 52.51C21.9766 52.8782 22.4414 53.1433 22.9502 53.28C23.459 53.4095 23.9912 53.4095 24.5 53.28C24.9893 53.1597 25.4385 52.9111 25.7998 52.5599C26.166 52.1915 26.4287 51.7327 26.5596 51.23C26.7002 50.7262 26.7002 50.1938 26.5596 49.6899C26.4316 49.205 26.1768 48.7629 25.8203 48.4099C25.4414 48.0413 24.9727 47.7792 24.46 47.65C23.9561 47.5107 23.4238 47.5107 22.9199 47.65Z" fill="var(--text-black)" fill-opacity="1.000000" fill-rule="nonzero"/>
		<path d="M15.3496 43L15.6191 45.75C15.791 45.8232 15.958 45.9067 16.1191 46L17.75 46.9401L18.8496 45L19.5 45.37L16 51.4L13.7197 50.0901C13.0459 49.7515 12.5137 49.1843 12.2197 48.49C12.1104 48.1772 12.0742 47.8439 12.1123 47.5149C12.1504 47.1859 12.2627 46.8698 12.4395 46.5901C12.6719 46.1517 13.04 45.8008 13.4893 45.5901C13.9453 45.4011 14.4502 45.3625 14.9297 45.48L14.6396 42.54L15.3496 43ZM14.21 46.16C13.9746 46.219 13.7539 46.3247 13.5615 46.4708C13.3682 46.6169 13.2061 46.8005 13.0859 47.0106C12.9658 47.2207 12.8887 47.4529 12.8604 47.6934C12.8311 47.9338 12.8516 48.1776 12.9199 48.41C13.1543 48.9276 13.5605 49.348 14.0693 49.6001L15.6797 50.53L17.4297 47.53L15.8193 46.6001C15.3564 46.2533 14.7871 46.0798 14.21 46.11L14.21 46.16Z" fill="var(--text-black)" fill-opacity="1.000000" fill-rule="nonzero"/>
		<path d="M9.42969 38.3099L9.87988 37.86L13.3301 41.41L8.33008 46.29L5 42.85L5.45996 42.4L8.29004 45.3099L10 43.58L7.51953 41L8 40.54L10.5303 43.14L12.3896 41.33L9.42969 38.3099Z" fill="var(--text-black)" fill-opacity="1.000000" fill-rule="nonzero"/>
		<path d="M2 34.38L2.24023 33L2.70996 33.0699L2.44043 34.49L3.77051 34L3.93066 34.4399L2.58008 34.9L3.69043 35.84L3.37012 36.2L2.30078 35.2L2.05078 36.62L1.57031 36.53L1.85059 35.11L0.510742 35.59L0.360352 35.2L1.7002 34.73L0.59082 33.8L0.919922 33.4399L2 34.38Z" fill="var(--text-black)" fill-opacity="1.000000" fill-rule="nonzero"/>
	</g>
</svg>
